<svg viewBox="0 0 64 64" fill="none" xmlns="http://www.w3.org/2000/svg">
  <path d="M26.2 8.5h11.6l1.7 6.2c1.7.7 3.2 1.6 4.7 2.7l6.1-1.7 5.8 10-4.4 4.5c.1.9.2 1.7.2 2.6 0 .9-.1 1.8-.2 2.6l4.4 4.5-5.8 10-6.1-1.7c-1.5 1.1-3 2-4.7 2.7l-1.7 6.2H26.2l-1.7-6.2c-1.7-.7-3.3-1.6-4.7-2.7l-6.1 1.7-5.8-10 4.4-4.5c-.1-.9-.2-1.7-.2-2.6 0-.9.1-1.8.2-2.6l-4.4-4.5 5.8-10 6.1 1.7c1.5-1.1 3-2 4.7-2.7l1.7-6.2Z" stroke="#39FF9C" stroke-width="4" stroke-linejoin="round"/>
  <circle cx="32" cy="32.8" r="7.2" stroke="#B6FFCE" stroke-width="4"/>
</svg>
