<svg xmlns="http://www.w3.org/2000/svg" xmlns:xlink="http://www.w3.org/1999/xlink" fill="none" version="1.1" width="3332" height="650" viewBox="0 0 3332 650"><defs><linearGradient x1="1" y1="0" x2="-0.17647058823529413" y2="0.2941176470588235" id="master_svg0_1039_41420"><stop offset="0%" stop-color="#00BFFF" stop-opacity="1"/><stop offset="50%" stop-color="#595FDB" stop-opacity="1"/><stop offset="100%" stop-color="#8900FF" stop-opacity="1"/></linearGradient><linearGradient x1="0" y1="0" x2="1.115210114966978" y2="0.0913421337534519" id="master_svg1_1039_45695"><stop offset="0%" stop-color="#00BFFF" stop-opacity="1"/><stop offset="50.000011920928955%" stop-color="#595FDB" stop-opacity="1"/><stop offset="100.00002384185791%" stop-color="#8900FF" stop-opacity="1"/></linearGradient><linearGradient x1="-0.12839075922966003" y1="-4.216713905334473" x2="1.3185831862063326" y2="-4.172937048182348" id="master_svg2_1039_46273"><stop offset="0%" stop-color="#00BFFF" stop-opacity="1"/><stop offset="50%" stop-color="#595FDB" stop-opacity="1"/><stop offset="100%" stop-color="#8900FF" stop-opacity="1"/></linearGradient></defs><path d="M1836.70056,371.91876C1845.8071300000001,378.40961,1849.05957,380.35681,1851.01099,382.30414C1933.7500599999998,472.875,1932.125,487.50003,1838.65192,570.53809C1703.3526299999999,689.32019,1494.54945,673.09314,1376.81308,534.18951C1259.727196,395.93481,1278.591032,190.17557,1419.0941,73.989792C1558.29623,-40.897869,1765.14798,-20.127228,1878.98151,123.32005C1960.2912000000001,225.87515,2037.6978800000002,332.32474,2116.40564,436.82706C2160.63806,495.89359,2219.83142,524.45325,2293.33539,518.61151C2380.4993,511.47153,2452.0518,445.26511,2467.6632,360.23529C2483.2748,275.85452,2439.6926000000003,188.87741,2361.6354,149.9324C2283.578,111.63652,2189.90936,129.16177,2130.716,196.01729C2107.9494,221.3315,2088.43506,249.24207,2061.7655,283.64346C2035.7465200000001,249.8912,2011.6786499999998,220.03337,1991.51398,188.87741C1981.6875,174.6875,1992.16437,164.86134,1998.01874,155.12511C2076.72644,31.799398,2222.43329,-25.968988,2360.9849,11.677819C2496.2842,48.026451,2593.8557,170.05406,2599.7101000000002,308.95776C2605.5641,451.75595,2522.3032000000003,580.27435,2391.5573999999997,628.30646C2252.35535,679.58411,2105.99799,637.39368,2013.6301899999999,517.31342C1934.92249,414.7583,1858.16614,310.25598,1778.80789,207.70093C1724.81842,138.24899,1640.90683,113.58387,1561.54865,140.84532C1484.79233,168.1068,1430.80272,242.75134,1431.45319,325.83395C1431.45319,406.96927,1483.49136,480.31561,1560.24765,508.2262C1635.703,535.48761,1719.6145900000001,514.06799,1772.30319,452.40512C1794.41937,427.73996,1813.9337799999998,400.47852,1836.70056,371.91876Z" fill="url(#master_svg0_1039_41420)" fill-opacity="1" style="mix-blend-mode:passthrough" transform="matrix(-1,0,0,1,2600,0)"/><path d="M1633.48563,42.573769L1633.48563,83.737705L1775.79955,83.737705C1774.91833,112.508194,1773.59654,142.16393,1769.63113,171.37704L1606.1684046,171.37704L1606.1684046,212.54099L1761.70032,212.54099C1743.63573,285.13113,1701.33809,351.52457,1600,389.59018C1610.574409,398.44263,1622.470619,413.49179,1628.198421,424.55737C1741.43272,378.52463,1785.93335,298.40985,1804.87917,212.54099L1808.40396,212.54099L1808.40396,354.18033C1808.40396,400.21313,1821.62198,413.93442,1871.8504,413.93442C1881.98422,413.93442,1936.17804,413.93442,1946.75247,413.93442C1991.6937,413.93442,2004.47113,394.90161,2009.31775,321.86884C1997.42154,318.77048,1978.47571,311.68854,1969.22308,304.16394C1967.02008,363.03278,1963.93591,372.77051,1943.6682700000001,372.77051C1931.3314500000001,372.77051,1886.3902600000001,372.77051,1876.69702,372.77051C1855.54822,372.77051,1852.02342,370.11475,1852.02342,353.7377L1852.02342,212.54099L2005.3523599999999,212.54099L2005.3523599999999,171.37704L1811.92877,171.37704C1815.89417,142.16393,1817.21597,112.508194,1818.53778,83.737705L1980.67868,83.737705L1980.67868,42.573769L1633.48563,42.573769ZM2062.6304,31.508197L2062.6304,423.67215L2099.20016,423.67215L2099.20016,69.131145L2154.27527,69.131145C2145.90387,98.344261,2134.88879,135.9672,2123.87384,165.62294C2152.51282,199.26231,2159.12183,228.91803,2159.12183,251.9344C2159.12183,265.21308999999997,2156.91882,276.72131,2150.75043,281.14752C2147.22565,283.36069,2142.81964,284.68854,2137.9730799999998,284.68854C2131.8045700000002,285.57376,2123.87384,285.13113,2115.06183,284.24591C2121.23022,294.86887,2124.755,310.80328,2124.755,320.54099C2134.88879,320.98361,2145.46326,320.98361,2153.83466,320.09836C2163.0872799999997,318.77048,2171.45862,315.67218,2177.62701,311.24588C2190.84509,301.50821,2196.57288,282.4754,2196.57288,256.36067C2196.57288,229.36066,2189.52325,197.49181,2160.0030500000003,161.19673C2174.10229,126.67213,2189.0827,82.409843,2201.41949,45.672131L2174.10229,30.180328L2167.93384,31.508197L2062.6304,31.508197ZM2376.33783,148.36066L2376.33783,194.83606L2260.4599,194.83606L2260.4599,148.36066L2376.33783,148.36066ZM2376.33783,113.836067L2260.4599,113.836067L2260.4599,69.131145L2376.33783,69.131145L2376.33783,113.836067ZM2219.48407,424.99997C2228.7366899999997,418.80328,2244.15771,413.49179,2333.15906,389.59018C2331.8370999999997,380.73767,2330.95599,363.47543,2331.39655,351.96722L2260.4599,368.34427L2260.4599,231.13115L2296.14856,231.13115C2317.73798,319.2131,2356.5108,387.37704,2424.36322,421.90164C2430.53168,410.83606,2443.30908,394.01639,2452.56171,386.04919C2419.5166600000002,371.88525,2393.08069,349.31149,2372.81299,320.09836C2394.84308,306.37704,2421.27905,287.78687,2442.86847,270.52461L2415.55127,241.31148C2400.13025,256.36067,2375.89722,275.39345000000003,2354.74841,289.99997C2345.49579,271.85245,2338.00562,251.9344,2331.8370999999997,231.13115L2416.43243,231.13115L2416.43243,32.393443L2219.48407,32.393443L2219.48407,356.83609C2219.48407,376.31146,2209.35028,386.93442,2201.41949,391.36066C2207.58783,399.32788,2216.3999,415.70493,2219.48407,424.99997ZM2578.5733,126.22951L2792.2646,126.22951L2792.2646,158.98361L2578.5733,158.98361L2578.5733,126.22951ZM2578.5733,63.377048L2792.2646,63.377048L2792.2646,95.245903L2578.5733,95.245903L2578.5733,63.377048ZM2537.59753,30.622951L2537.59753,191.29507L2563.1524,191.29507C2545.52832,228.47542,2516.44873,265.21308999999997,2485.1661400000003,288.67212C2495.29987,294.86887,2512.04266,307.2623,2519.97345,314.7869C2534.51337,301.95084,2549.49377,286.01636,2563.59296,267.86885L2665.3716999999997,267.86885L2665.3716999999997,303.27869L2546.40955,303.27869L2546.40955,336.4754L2665.3716999999997,336.4754L2665.3716999999997,376.75412L2493.09686,376.75412L2493.09686,413.04916L2879.944,413.04916L2879.944,376.75412L2708.5505000000003,376.75412L2708.5505000000003,336.4754L2832.7998,336.4754L2832.7998,303.27869L2708.5505000000003,303.27869L2708.5505000000003,267.86885L2852.1862,267.86885L2852.1862,232.45901L2708.5505000000003,232.45901L2708.5505000000003,200.14754L2665.3716999999997,200.14754L2665.3716999999997,232.45901L2587.8259900000003,232.45901C2593.99445,222.27869,2599.72229,212.09836,2604.5688,201.4754L2568.43964,191.29507L2835.0028,191.29507L2835.0028,30.622951L2537.59753,30.622951ZM2918.2762000000002,171.37704C2944.7122,185.54099,2982.1633,206.7869,3000.2279,219.62294L3023.1392,185.09836C3004.1931999999997,172.70493,2966.3016,152.78688,2940.7469,140.83606L2918.2762000000002,171.37704ZM2930.6130000000003,390.91803L2965.8612000000003,419.24588C2992.2971,377.19669,3021.8172999999997,323.63934,3045.1691,277.16394L3014.7678,249.27869C2988.7723,300.18033,2954.4055,357.27869,2930.6130000000003,390.91803ZM2938.5438999999997,49.655739C2964.98,65.147537,3001.9905,86.836067,3020.0549,100.557381L3044.288,67.803276L3044.288,81.524586L3257.0978,81.524586L3257.0978,367.45901C3257.0978,377.19669,3253.1324,380.29507,3242.9987,380.73767C3231.9838,381.1803,3193.2109,381.62292,3156.2003999999997,379.40985C3162.8096,391.36066,3170.7402,411.72131,3172.5027,423.67215C3221.4094,423.67215,3253.5731,423.22949,3272.5190000000002,416.14755C3291.9054,409.06558,3298.5144,396.22949,3298.5144,368.34427L3298.5144,81.524586L3332.0001,81.524586L3332.0001,40.80328L3044.288,40.80328L3044.288,66.032787C3024.9015,53.639343,2987.8911,33.721312,2962.3361999999997,20L2938.5438999999997,49.655739ZM3067.1992,136.40983L3067.1992,329.39343L3105.0908,329.39343L3105.0908,299.29507L3209.5131,299.29507L3209.5131,136.40983L3067.1992,136.40983ZM3105.0908,174.4754L3170.7402,174.4754L3170.7402,261.67212L3105.0908,261.67212L3105.0908,174.4754Z" fill="url(#master_svg1_1039_45695)" fill-opacity="1" style="mix-blend-mode:passthrough"/><path d="M1784,627.8377L1802.323566,627.8377L1802.323566,514.0078461L1784,514.0078461L1784,627.8377ZM1932.32611,627.8377L1949.70192,627.8377L1949.70192,574.397888C1949.70192,561.887436,1948.28024,548.759163,1947.49045,537.020941L1948.12231,537.020941L1960.28535,560.806274L1998.8280300000001,627.8377L2017.6255,627.8377L2017.6255,514.0078461L2000.09174,514.0078461L2000.09174,567.138729C2000.09174,579.494751,2001.67136,593.240829,2002.61913,604.824593L2001.82932,604.824593L1989.66624,580.884804L1951.12358,514.0078461L1932.32611,514.0078461L1932.32611,627.8377ZM2147.78598,627.8377L2166.10956,627.8377L2166.10956,578.876953L2209.23309,578.876953L2209.23309,563.895279L2166.10956,563.895279L2166.10956,529.143974L2216.6573200000003,529.143974L2216.6573200000003,514.0078461L2147.78598,514.0078461L2147.78598,627.8377ZM2336.70825,627.8377L2355.03174,627.8377L2355.03174,514.0078461L2336.70825,514.0078461L2336.70825,627.8377ZM2518.20636,630C2543.63818,630,2559.11841,615.01831,2559.11841,596.79319C2559.11841,580.112556,2549.32471,571.772236,2535.4241899999997,566.057587L2519.47003,559.416218C2510.15033,555.554962,2500.83057,552.002605,2500.83057,542.117796C2500.83057,533.314131,2508.41278,527.599472,2520.25983,527.599472C2530.52734,527.599472,2538.74139,531.460728,2546.0075699999998,537.793192L2555.32739,526.363867C2546.79736,517.5602074,2534.00256,512,2520.25983,512C2497.98718,512,2482.03308,525.437167,2482.03308,543.353397C2482.03308,560.034027,2494.35413,568.528786,2505.72729,573.162292L2521.83948,579.958107C2532.58081,584.591621,2540.32104,587.835068,2540.32104,598.183235C2540.32104,607.759148,2532.58081,614.2460599999999,2518.68024,614.2460599999999C2507.30695,614.2460599999999,2495.93378,608.840302,2487.5617700000003,600.808891L2476.82037,613.1649C2487.40381,623.66754,2502.25226,630,2518.20636,630ZM2700.65222,627.8377L2719.29181,627.8377L2719.29181,529.143974L2753.41156,529.143974L2753.41156,514.0078461L2666.69043,514.0078461L2666.69043,529.143974L2700.65222,529.143974L2700.65222,627.8377ZM2850.7159,627.8377L2869.5133,627.8377L2879.3069,595.557587L2919.7454,595.557587L2929.5389,627.8377L2948.9681,627.8377L2910.4255000000003,514.0078461L2889.2587000000003,514.0078461L2850.7159,627.8377ZM2883.7300999999998,581.34816L2888.3108,566.057587C2892.1018,553.701569,2895.7349999999997,541.191095,2899.2101000000002,528.217276L2899.842,528.217276C2903.4752,541.036646,2906.9503,553.701569,2910.7412999999997,566.057587L2915.3224,581.34816L2883.7300999999998,581.34816ZM3082.13,567.602089L3082.13,528.526173L3099.6638000000003,528.526173C3116.4076,528.526173,3125.7273,533.314131,3125.7273,547.060207C3125.7273,560.806274,3116.4076,567.602089,3099.6638000000003,567.602089L3082.13,567.602089ZM3127.307,627.8377L3148,627.8377L3119.5667000000003,579.649216C3134.2573,575.170139,3143.8929,564.6675299999999,3143.8929,547.060207C3143.8929,522.348161,3125.8854,514.0078461,3101.875,514.0078461L3063.8064,514.0078461L3063.8064,627.8377L3082.13,627.8377L3082.13,581.965965L3101.0854,581.965965L3127.307,627.8377Z" fill="url(#master_svg2_1039_46273)" fill-opacity="1" style="mix-blend-mode:passthrough"/></svg>